<svg width="37" height="36" viewBox="0 0 37 36" fill="none" xmlns="http://www.w3.org/2000/svg">
<path d="M33.5 25.11V7.00504C33.5 5.20504 32.03 3.87004 30.245 4.02004H30.155C27.005 4.29004 22.22 5.89504 19.55 7.57504L19.295 7.74004C18.86 8.01004 18.14 8.01004 17.705 7.74004L17.33 7.51504C14.66 5.85004 9.89 4.26004 6.74 4.00504C4.955 3.85504 3.5 5.20504 3.5 6.99004V25.11C3.5 26.55 4.67 27.9 6.11 28.08L6.545 28.14C9.8 28.575 14.825 30.225 17.705 31.8L17.765 31.83C18.17 32.055 18.815 32.055 19.205 31.83C22.085 30.24 27.125 28.575 30.395 28.14L30.89 28.08C32.33 27.9 33.5 26.55 33.5 25.11Z" fill="#FACC15" stroke="white" stroke-width="2.5" stroke-linecap="round" stroke-linejoin="round"/>
<path d="M18.5 8.23486V30.7349V8.23486Z" fill="#FACC15"/>
<path d="M18.5 8.23486V30.7349" stroke="white" stroke-width="2.5" stroke-linecap="round" stroke-linejoin="round"/>
<path d="M12.125 12.7349H8.75H12.125Z" fill="#FACC15"/>
<path d="M12.125 12.7349H8.75" stroke="white" stroke-width="2.5" stroke-linecap="round" stroke-linejoin="round"/>
<path d="M13.25 17.2349H8.75H13.25Z" fill="#FACC15"/>
<path d="M13.25 17.2349H8.75" stroke="white" stroke-width="2.5" stroke-linecap="round" stroke-linejoin="round"/>
</svg>
