<svg width="36" height="36" viewBox="0 0 36 36" fill="none" xmlns="http://www.w3.org/2000/svg">
<path d="M16.695 23.8198C16.32 23.8198 15.945 23.6248 15.735 23.2798C15.42 22.7548 15.585 22.0498 16.125 21.7348L17.46 20.9398V19.3198C17.46 18.7048 17.97 18.1948 18.585 18.1948C19.2 18.1948 19.71 18.7048 19.71 19.3198V21.5698C19.71 21.9598 19.5 22.3348 19.17 22.5298L17.295 23.6548C17.085 23.7598 16.89 23.8198 16.695 23.8198Z" fill="#FACC15"/>
<path d="M31.6351 10.4698C30.3601 9.05979 28.2451 8.35479 25.1401 8.35479H24.7801V8.29479C24.7801 5.77479 24.7801 2.65479 19.1401 2.65479H16.8601C11.2201 2.65479 11.2201 5.77479 11.2201 8.29479V8.35479H10.8601C7.75506 8.35479 5.62506 9.05979 4.36506 10.4698C2.88006 12.1348 2.92506 14.3398 3.07506 15.8548L3.09006 15.9598L3.20414 17.2908C3.21733 17.4447 3.30092 17.5839 3.43058 17.668C3.88547 17.9628 4.37655 18.2795 4.84506 18.5398C5.05506 18.6748 5.28006 18.7948 5.50506 18.9148C7.20006 19.8448 9.01506 20.5798 10.8751 21.0898C10.9201 24.9748 14.1001 28.1248 18.0001 28.1248C21.9301 28.1248 25.1251 24.9298 25.1251 20.9998V20.9398C27.0151 20.3698 28.8301 19.5748 30.5251 18.5848C30.6151 18.5398 30.6751 18.4948 30.7501 18.4498C31.3746 18.1104 32.0236 17.6604 32.6083 17.2444C32.7241 17.162 32.799 17.0341 32.8147 16.8929L32.8501 16.5748L32.9251 15.8698C32.9401 15.7798 32.9401 15.7048 32.9551 15.5998C33.0751 14.0998 33.0451 12.0298 31.6351 10.4698ZM13.3651 8.29479C13.3651 5.74479 13.3651 4.78479 16.8601 4.78479H19.1401C22.6351 4.78479 22.6351 5.74479 22.6351 8.29479V8.35479H13.3651V8.29479ZM18.0001 25.8748C15.5251 25.8748 13.4701 24.0148 13.1701 21.6148C13.1401 21.4198 13.1251 21.2098 13.1251 20.9998C13.1251 18.3148 15.3151 16.1248 18.0001 16.1248C20.6851 16.1248 22.8751 18.3148 22.8751 20.9998C22.8751 21.1798 22.8601 21.3448 22.8451 21.5098V21.5248C22.5751 23.9698 20.5051 25.8748 18.0001 25.8748Z" fill="#FACC15"/>
<path d="M31.5741 20.5873C31.94 20.3806 32.418 20.6786 32.3797 21.0972L31.845 26.9402C31.53 29.9402 30.3 33.0002 23.7 33.0002H12.27C5.67002 33.0002 4.44002 29.9402 4.14002 26.9552L3.61532 21.337C3.57751 20.9322 4.01193 20.6561 4.36919 20.8502C4.38933 20.8611 4.40804 20.8712 4.42502 20.8802C5.59502 21.5252 6.81002 22.0952 8.05502 22.5452C8.52002 22.7102 8.85002 23.1002 8.98502 23.5802C10.11 27.4802 13.74 30.3752 18 30.3752C22.335 30.3752 25.995 27.4202 27.06 23.3702C27.18 22.8902 27.51 22.5002 27.975 22.3202C29.235 21.8252 30.435 21.2402 31.56 20.5952C31.5642 20.5929 31.5689 20.5902 31.5741 20.5873Z" fill="#FACC15"/>
</svg>
