<svg width="37" height="36" viewBox="0 0 37 36" fill="none" xmlns="http://www.w3.org/2000/svg">
<path d="M12.875 31.5C14.1176 31.5 15.125 30.4926 15.125 29.25C15.125 28.0074 14.1176 27 12.875 27C11.6324 27 10.625 28.0074 10.625 29.25C10.625 30.4926 11.6324 31.5 12.875 31.5Z" fill="#FACC15"/>
<path d="M28.625 31.5C29.8676 31.5 30.875 30.4926 30.875 29.25C30.875 28.0074 29.8676 27 28.625 27C27.3824 27 26.375 28.0074 26.375 29.25C26.375 30.4926 27.3824 31.5 28.625 31.5Z" fill="#FACC15"/>
<path d="M32.6187 8.49234C32.4607 8.29902 32.2616 8.14331 32.0359 8.03653C31.8101 7.92975 31.5635 7.87457 31.3137 7.875H9.91414L9.48313 5.42953C9.43717 5.16904 9.30089 4.93308 9.09824 4.76309C8.89558 4.59309 8.63951 4.49994 8.375 4.5H3.875C3.57663 4.5 3.29048 4.61853 3.0795 4.82951C2.86853 5.04048 2.75 5.32663 2.75 5.625C2.75 5.92337 2.86853 6.20952 3.0795 6.42049C3.29048 6.63147 3.57663 6.75 3.875 6.75H7.43141L10.6419 24.9455C10.6878 25.206 10.8241 25.4419 11.0268 25.6119C11.2294 25.7819 11.4855 25.8751 11.75 25.875H29.75C30.0484 25.875 30.3345 25.7565 30.5455 25.5455C30.7565 25.3345 30.875 25.0484 30.875 24.75C30.875 24.4516 30.7565 24.1655 30.5455 23.9545C30.3345 23.7435 30.0484 23.625 29.75 23.625H12.6936L12.297 21.375H29.2887C29.6789 21.3745 30.0569 21.2392 30.3588 20.9921C30.6606 20.7449 30.8678 20.401 30.9453 20.0187L32.9703 9.89367C33.0191 9.64863 33.0129 9.39582 32.9521 9.15348C32.8913 8.91114 32.7774 8.68533 32.6187 8.49234Z" fill="#FACC15"/>
</svg>
