<svg width="37" height="36" viewBox="0 0 37 36" fill="none" xmlns="http://www.w3.org/2000/svg">
<path d="M24.785 3H12.215C6.755 3 3.5 6.255 3.5 11.715V24.27C3.5 29.745 6.755 33 12.215 33H24.77C30.23 33 33.485 29.745 33.485 24.285V11.715C33.5 6.255 30.245 3 24.785 3ZM14.165 25.35C14.165 25.77 13.835 26.1 13.415 26.1H9.23C8.81 26.1 8.48 25.77 8.48 25.35V18.42C8.48 17.475 9.245 16.71 10.19 16.71H13.415C13.835 16.71 14.165 17.04 14.165 17.46V25.35ZM21.335 25.35C21.335 25.77 21.005 26.1 20.585 26.1H16.4C15.98 26.1 15.65 25.77 15.65 25.35V11.61C15.65 10.665 16.415 9.9 17.36 9.9H19.64C20.585 9.9 21.35 10.665 21.35 11.61V25.35H21.335ZM28.52 25.35C28.52 25.77 28.19 26.1 27.77 26.1H23.585C23.165 26.1 22.835 25.77 22.835 25.35V20.025C22.835 19.605 23.165 19.275 23.585 19.275H26.81C27.755 19.275 28.52 20.04 28.52 20.985V25.35Z" fill="#FACC15"/>
</svg>
