<svg width="37" height="36" viewBox="0 0 37 36" fill="none" xmlns="http://www.w3.org/2000/svg">
<path d="M29.1875 33.75H13.4375C12.0948 33.75 10.8072 33.2166 9.85777 32.2672C8.90837 31.3178 8.375 30.0302 8.375 28.6875V12.9375C8.375 11.5948 8.90837 10.3072 9.85777 9.35777C10.8072 8.40837 12.0948 7.875 13.4375 7.875H29.1875C30.5302 7.875 31.8178 8.40837 32.7672 9.35777C33.7166 10.3072 34.25 11.5948 34.25 12.9375V28.6875C34.25 30.0302 33.7166 31.3178 32.7672 32.2672C31.8178 33.2166 30.5302 33.75 29.1875 33.75Z" fill="#FACC15"/>
<path d="M11.75 5.625H28.3353C27.9853 4.63869 27.3387 3.78483 26.4841 3.18058C25.6296 2.57632 24.6091 2.25126 23.5625 2.25H7.8125C6.46984 2.25 5.18217 2.78337 4.23277 3.73277C3.28337 4.68217 2.75 5.96984 2.75 7.3125V23.0625C2.75126 24.1091 3.07632 25.1296 3.68058 25.9841C4.28483 26.8387 5.13869 27.4853 6.125 27.8353V11.25C6.125 9.75816 6.71763 8.32742 7.77252 7.27252C8.82742 6.21763 10.2582 5.625 11.75 5.625Z" fill="#FACC15"/>
</svg>
