<svg width="37" height="36" viewBox="0 0 37 36" fill="none" xmlns="http://www.w3.org/2000/svg">
<path d="M18.5 28.125C17.8325 28.125 17.18 28.3229 16.625 28.6938C16.0699 29.0646 15.6374 29.5917 15.3819 30.2084C15.1265 30.8251 15.0596 31.5037 15.1899 32.1584C15.3201 32.8131 15.6415 33.4145 16.1135 33.8865C16.5855 34.3585 17.1869 34.6799 17.8416 34.8102C18.4963 34.9404 19.1749 34.8735 19.7916 34.6181C20.4083 34.3626 20.9354 33.9301 21.3062 33.375C21.6771 32.82 21.875 32.1675 21.875 31.5C21.875 30.6049 21.5194 29.7464 20.8865 29.1135C20.2536 28.4806 19.3951 28.125 18.5 28.125Z" fill="#FACC15"/>
<path d="M18.5 19.125C17.8325 19.125 17.18 19.3229 16.625 19.6938C16.0699 20.0646 15.6374 20.5917 15.3819 21.2084C15.1265 21.8251 15.0596 22.5037 15.1899 23.1584C15.3201 23.8131 15.6415 24.4145 16.1135 24.8865C16.5855 25.3585 17.1869 25.6799 17.8416 25.8102C18.4963 25.9404 19.1749 25.8735 19.7916 25.6181C20.4083 25.3626 20.9354 24.9301 21.3062 24.375C21.6771 23.82 21.875 23.1675 21.875 22.5C21.875 21.6049 21.5194 20.7464 20.8865 20.1135C20.2536 19.4806 19.3951 19.125 18.5 19.125Z" fill="#FACC15"/>
<path d="M18.5 10.125C17.8325 10.125 17.18 10.3229 16.625 10.6938C16.0699 11.0646 15.6374 11.5917 15.3819 12.2084C15.1265 12.8251 15.0596 13.5037 15.1899 14.1584C15.3201 14.8131 15.6415 15.4145 16.1135 15.8865C16.5855 16.3585 17.1869 16.6799 17.8416 16.8102C18.4963 16.9404 19.1749 16.8735 19.7916 16.6181C20.4083 16.3626 20.9354 15.9301 21.3062 15.375C21.6771 14.82 21.875 14.1675 21.875 13.5C21.875 12.6049 21.5194 11.7464 20.8865 11.1135C20.2536 10.4806 19.3951 10.125 18.5 10.125Z" fill="#FACC15"/>
<path d="M18.5 1.125C17.8325 1.125 17.18 1.32294 16.625 1.69379C16.0699 2.06464 15.6374 2.59174 15.3819 3.20844C15.1265 3.82514 15.0596 4.50374 15.1899 5.15843C15.3201 5.81312 15.6415 6.41448 16.1135 6.88649C16.5855 7.35849 17.1869 7.67993 17.8416 7.81015C18.4963 7.94038 19.1749 7.87354 19.7916 7.61809C20.4083 7.36265 20.9354 6.93007 21.3062 6.37505C21.6771 5.82003 21.875 5.16751 21.875 4.5C21.875 3.60489 21.5194 2.74645 20.8865 2.11351C20.2536 1.48058 19.3951 1.125 18.5 1.125Z" fill="#FACC15"/>
<path d="M27.5 19.125C26.8325 19.125 26.18 19.3229 25.625 19.6938C25.0699 20.0646 24.6374 20.5917 24.3819 21.2084C24.1265 21.8251 24.0596 22.5037 24.1898 23.1584C24.3201 23.8131 24.6415 24.4145 25.1135 24.8865C25.5855 25.3585 26.1869 25.6799 26.8416 25.8102C27.4963 25.9404 28.1749 25.8735 28.7916 25.6181C29.4083 25.3626 29.9354 24.9301 30.3062 24.375C30.6771 23.82 30.875 23.1675 30.875 22.5C30.875 21.6049 30.5194 20.7464 29.8865 20.1135C29.2536 19.4806 28.3951 19.125 27.5 19.125Z" fill="#FACC15"/>
<path d="M27.5 10.125C26.8325 10.125 26.18 10.3229 25.625 10.6938C25.0699 11.0646 24.6374 11.5917 24.3819 12.2084C24.1265 12.8251 24.0596 13.5037 24.1898 14.1584C24.3201 14.8131 24.6415 15.4145 25.1135 15.8865C25.5855 16.3585 26.1869 16.6799 26.8416 16.8102C27.4963 16.9404 28.1749 16.8735 28.7916 16.6181C29.4083 16.3626 29.9354 15.9301 30.3062 15.375C30.6771 14.82 30.875 14.1675 30.875 13.5C30.875 12.6049 30.5194 11.7464 29.8865 11.1135C29.2536 10.4806 28.3951 10.125 27.5 10.125Z" fill="#FACC15"/>
<path d="M27.5 1.125C26.8325 1.125 26.18 1.32294 25.625 1.69379C25.0699 2.06464 24.6374 2.59174 24.3819 3.20844C24.1265 3.82514 24.0596 4.50374 24.1898 5.15843C24.3201 5.81312 24.6415 6.41448 25.1135 6.88649C25.5855 7.35849 26.1869 7.67993 26.8416 7.81015C27.4963 7.94038 28.1749 7.87354 28.7916 7.61809C29.4083 7.36265 29.9354 6.93007 30.3062 6.37505C30.6771 5.82003 30.875 5.16751 30.875 4.5C30.875 3.60489 30.5194 2.74645 29.8865 2.11351C29.2536 1.48058 28.3951 1.125 27.5 1.125Z" fill="#FACC15"/>
<path d="M9.5 19.125C8.83249 19.125 8.17997 19.3229 7.62495 19.6938C7.06994 20.0646 6.63735 20.5917 6.38191 21.2084C6.12646 21.8251 6.05963 22.5037 6.18985 23.1584C6.32008 23.8131 6.64151 24.4145 7.11352 24.8865C7.58552 25.3585 8.18689 25.6799 8.84157 25.8102C9.49626 25.9404 10.1749 25.8735 10.7916 25.6181C11.4083 25.3626 11.9354 24.9301 12.3062 24.375C12.6771 23.82 12.875 23.1675 12.875 22.5C12.875 21.6049 12.5194 20.7464 11.8865 20.1135C11.2536 19.4806 10.3951 19.125 9.5 19.125Z" fill="#FACC15"/>
<path d="M9.5 10.125C8.83249 10.125 8.17997 10.3229 7.62495 10.6938C7.06994 11.0646 6.63735 11.5917 6.38191 12.2084C6.12646 12.8251 6.05963 13.5037 6.18985 14.1584C6.32008 14.8131 6.64151 15.4145 7.11352 15.8865C7.58552 16.3585 8.18689 16.6799 8.84157 16.8102C9.49626 16.9404 10.1749 16.8735 10.7916 16.6181C11.4083 16.3626 11.9354 15.9301 12.3062 15.375C12.6771 14.82 12.875 14.1675 12.875 13.5C12.875 12.6049 12.5194 11.7464 11.8865 11.1135C11.2536 10.4806 10.3951 10.125 9.5 10.125Z" fill="#FACC15"/>
<path d="M9.5 1.125C8.83249 1.125 8.17997 1.32294 7.62495 1.69379C7.06994 2.06464 6.63735 2.59174 6.38191 3.20844C6.12646 3.82514 6.05963 4.50374 6.18985 5.15843C6.32008 5.81312 6.64151 6.41448 7.11352 6.88649C7.58552 7.35849 8.18689 7.67993 8.84157 7.81015C9.49626 7.94038 10.1749 7.87354 10.7916 7.61809C11.4083 7.36265 11.9354 6.93007 12.3062 6.37505C12.6771 5.82003 12.875 5.16751 12.875 4.5C12.875 3.60489 12.5194 2.74645 11.8865 2.11351C11.2536 1.48058 10.3951 1.125 9.5 1.125Z" fill="#FACC15"/>
</svg>
