<svg width="36" height="36" viewBox="0 0 36 36" fill="none" xmlns="http://www.w3.org/2000/svg">
<path d="M18 18C17.0529 18 16.1058 17.832 15.3675 17.4959L4.96125 12.7505C4.48523 12.5339 3.375 11.9004 3.375 10.7044C3.375 9.50836 4.48523 8.87625 4.96266 8.65688L15.4589 3.8707C16.9052 3.20977 19.0877 3.20977 20.5348 3.8707L31.0373 8.65688C31.5148 8.87414 32.625 9.50766 32.625 10.7044C32.625 11.9011 31.5148 12.5325 31.0373 12.7512L20.6311 17.4959C19.8942 17.832 18.9471 18 18 18Z" fill="#FACC15"/>
<path d="M31.0331 15.9476L29.9721 15.4688L20.6367 19.7395C19.8984 20.077 18.9492 20.2451 18.0042 20.2451C17.0592 20.2451 16.1107 20.077 15.3731 19.7395L6.03211 15.4688L4.96195 15.9497C4.48523 16.167 3.375 16.8047 3.375 18C3.375 19.1953 4.48523 19.8338 4.96125 20.051L15.3675 24.8062C16.1016 25.1437 17.0501 25.3125 18 25.3125C18.9499 25.3125 19.8942 25.1437 20.6325 24.807L31.0296 20.0531C31.5084 19.8359 32.625 19.2016 32.625 18C32.625 16.7984 31.5162 16.167 31.0331 15.9476Z" fill="#FACC15"/>
<path d="M31.0331 23.2594L29.9721 22.7812L20.6367 27.0478C19.8984 27.3839 18.9492 27.5527 18.0042 27.5527C17.0592 27.5527 16.1107 27.3846 15.3731 27.0478L6.03211 22.7812L4.96195 23.2622C4.48523 23.4795 3.375 24.1172 3.375 25.3125C3.375 26.5078 4.48523 27.1455 4.96125 27.3621L15.3675 32.1145C16.1016 32.4506 17.0536 32.625 18 32.625C18.9464 32.625 19.89 32.4506 20.6283 32.1138L31.0289 27.3628C31.5084 27.1463 32.625 26.512 32.625 25.3125C32.625 24.113 31.5162 23.4795 31.0331 23.2594Z" fill="#FACC15"/>
</svg>
