<svg width="37" height="36" viewBox="0 0 37 36" fill="none" xmlns="http://www.w3.org/2000/svg">
<path d="M18.5 22.5C24.0919 22.5 28.625 18.1348 28.625 12.75C28.625 7.36522 24.0919 3 18.5 3C12.9081 3 8.375 7.36522 8.375 12.75C8.375 18.1348 12.9081 22.5 18.5 22.5Z" fill="#FACC15"/>
<path d="M24.185 23.4151C24.68 23.1601 25.25 23.5351 25.25 24.0901V31.3651C25.25 32.7151 24.305 33.3751 23.135 32.8201L19.115 30.9151C18.77 30.7651 18.23 30.7651 17.885 30.9151L13.865 32.8201C12.695 33.3601 11.75 32.7001 11.75 31.3501L11.78 24.0901C11.78 23.5351 12.365 23.1751 12.845 23.4151C14.54 24.2701 16.46 24.7501 18.5 24.7501C20.54 24.7501 22.475 24.2701 24.185 23.4151Z" fill="#FACC15"/>
</svg>
