<svg width="37" height="37" viewBox="0 0 37 37" fill="none" xmlns="http://www.w3.org/2000/svg">
<path d="M18.7042 3.87538C10.4791 3.76429 3.76423 10.4791 3.87532 18.7043C3.98501 26.5926 10.4081 33.0157 18.2964 33.1254C26.523 33.2379 33.2364 26.523 33.1239 18.2979C33.0156 10.4081 26.5926 3.98507 18.7042 3.87538ZM18.4455 14.5706C18.4602 14.4862 18.4764 14.4019 18.4954 14.3182C18.673 13.497 19.0687 12.739 19.6408 12.1237C20.5471 11.1584 21.8317 10.6254 23.2584 10.6254C23.8586 10.6229 24.4547 10.7243 25.0204 10.9249C25.7236 11.1753 26.3568 11.5899 26.8675 12.1343C27.6187 12.9463 28.0659 13.9931 28.1331 15.0973C28.1526 15.3641 28.1526 15.632 28.1331 15.8988C28.079 16.6551 27.8834 17.3944 27.5566 18.0785C27.5209 18.153 27.4837 18.2269 27.4448 18.3C27.3667 18.4455 27.2831 18.5883 27.1931 18.7261C27.0139 19.0012 26.8109 19.26 26.5863 19.4995C25.6638 20.4839 24.4825 21.0274 23.2598 21.0274C22.8013 21.0271 22.3459 20.9516 21.9119 20.8038C21.7661 20.7543 21.6229 20.6973 21.483 20.633C20.897 20.3596 20.3699 19.9746 19.9312 19.4995C19.018 18.509 18.472 17.2354 18.3843 15.8911C18.3717 15.7092 18.3674 15.5292 18.3716 15.3511C18.3771 15.0899 18.4018 14.8295 18.4455 14.572V14.5706ZM7.91759 16.282C7.9518 15.7803 8.07563 15.2888 8.28321 14.8308C8.34177 14.7032 8.40702 14.5788 8.47868 14.4581C8.62202 14.2162 8.79155 13.9908 8.98423 13.7859C9.26966 13.4814 9.60198 13.2246 9.9686 13.0251C10.1517 12.9251 10.3424 12.8395 10.5388 12.7692C11.2917 12.5059 12.1011 12.4479 12.8838 12.6012C13.7131 12.7616 14.4706 13.1799 15.048 13.7965C15.7332 14.5361 16.1193 15.5038 16.1315 16.5119C16.135 16.6603 16.1315 16.8094 16.1209 16.9605C16.078 17.5394 15.9353 18.1065 15.6991 18.6368C15.586 18.8921 15.4512 19.1372 15.2962 19.3694C14.9981 19.8199 14.623 20.2143 14.1881 20.5345C14.0826 20.6098 13.9729 20.6801 13.8597 20.7504C13.637 20.883 13.4015 20.9925 13.1566 21.0773C12.7904 21.2053 12.4054 21.2709 12.0175 21.2714C11.9521 21.2714 11.8867 21.2714 11.822 21.2658C11.6929 21.2587 11.5642 21.2441 11.4367 21.2222C11.3099 21.2001 11.1843 21.1712 11.0606 21.1357C10.8747 21.082 10.6932 21.0141 10.5177 20.9325C10.4587 20.9051 10.401 20.8762 10.3434 20.846C9.07774 20.1787 8.1236 18.7957 7.93657 17.1813C7.92813 17.1075 7.9211 17.0337 7.91618 16.9591C7.90031 16.7337 7.90078 16.5074 7.91759 16.282ZM11.7088 28.8398C9.83673 27.6058 8.33216 25.8897 7.35368 23.8723C7.32172 23.8077 7.31572 23.7334 7.33691 23.6646C7.3581 23.5958 7.40487 23.5378 7.46759 23.5024C8.77399 22.7676 10.4425 22.3676 12.0189 22.3676C13.2142 22.3676 14.1775 22.5082 15.0206 22.781C15.1161 22.8125 15.2015 22.869 15.2678 22.9447C15.3341 23.0204 15.3789 23.1124 15.3975 23.2113C15.4161 23.3102 15.4078 23.4123 15.3736 23.5069C15.3393 23.6015 15.2803 23.6852 15.2027 23.7492C13.5609 25.0851 12.5027 26.7403 12.0056 28.7238C11.9981 28.7542 11.9835 28.7823 11.9629 28.8058C11.9423 28.8293 11.9164 28.8475 11.8873 28.8588C11.8582 28.8702 11.8268 28.8744 11.7958 28.8711C11.7647 28.8678 11.7349 28.8571 11.7088 28.8398ZM18.5003 30.8754C16.9173 30.877 15.3488 30.5733 13.8808 29.981C13.8208 29.9562 13.7712 29.9115 13.7405 29.8543C13.7097 29.7972 13.6997 29.7311 13.712 29.6674C13.7402 29.5233 13.7711 29.3918 13.7985 29.2821C14.2991 27.2831 15.5395 25.6259 17.3845 24.4882C19.022 23.4792 21.111 22.9237 23.257 22.9237C25.4479 22.9237 27.4757 23.4567 29.1266 24.4643C29.1687 24.4906 29.1989 24.5322 29.2108 24.5804C29.2228 24.6285 29.2155 24.6794 29.1906 24.7223C28.1019 26.5928 26.5419 28.1452 24.6662 29.2248C22.7905 30.3044 20.6645 30.8735 18.5003 30.8754Z" fill="#FACC15"/>
<path d="M16.1216 16.957C16.1322 16.8059 16.1357 16.6568 16.1322 16.5084C16.1359 16.6561 16.1324 16.8056 16.1216 16.957Z" fill="#FACC15"/>
<path d="M7.93798 17.1778C8.12501 18.795 9.08126 20.1752 10.3448 20.8425C9.07845 20.1752 8.12501 18.7922 7.93798 17.1778Z" fill="#FACC15"/>
<path d="M18.3836 15.8988C18.3709 15.7169 18.3667 15.5369 18.3709 15.3588C18.3667 15.5346 18.3709 15.7146 18.3836 15.8988Z" fill="#FACC15"/>
</svg>
