<svg width="36" height="36" viewBox="0 0 36 36" fill="none" xmlns="http://www.w3.org/2000/svg">
<path d="M1.84479 32.5226L2.98479 31.3826C2.38479 30.4826 2.03979 29.4026 2.03979 28.2476C2.03979 25.0826 4.60479 22.5176 7.76979 22.5176C10.9348 22.5176 13.4998 25.0676 13.4998 28.2326C13.4998 31.3976 10.9348 33.9626 7.76979 33.9626C6.61479 33.9626 5.53479 33.6176 4.63479 33.0176L3.49479 34.1576C3.25479 34.3826 2.95479 34.5026 2.65479 34.5026C2.35479 34.5026 2.05479 34.3826 1.82979 34.1576C1.37979 33.7076 1.37979 32.9726 1.84479 32.5226Z" fill="#FACC15"/>
<path d="M32.25 18.75H28.5C26.85 18.75 25.5 20.1 25.5 21.75C25.5 23.4 26.85 24.75 28.5 24.75H32.25C32.67 24.75 33 24.42 33 24V19.5C33 19.08 32.67 18.75 32.25 18.75Z" fill="#FACC15"/>
<path d="M24.7949 8.10023C25.2449 8.53523 24.8699 9.21023 24.2399 9.21023L11.8199 9.19523C11.0999 9.19523 10.7399 8.32523 11.2499 7.81523L13.8749 5.17523C16.0949 2.97023 19.6799 2.97023 21.8999 5.17523L24.7349 8.04023C24.7499 8.05523 24.7799 8.08523 24.7949 8.10023Z" fill="#FACC15"/>
<path d="M32.805 27.99C31.89 31.08 29.25 33 25.65 33H15.9C15.315 33 14.94 32.355 15.18 31.815C15.63 30.765 15.915 29.58 15.915 28.5C15.915 23.955 12.21 20.25 7.66504 20.25C6.52504 20.25 5.41504 20.49 4.39504 20.94C3.84004 21.18 3.16504 20.805 3.16504 20.205V18C3.16504 13.92 5.62504 11.07 9.45004 10.59C9.82504 10.53 10.23 10.5 10.65 10.5H25.65C26.04 10.5 26.415 10.515 26.775 10.575C29.805 10.92 31.995 12.765 32.805 15.51C32.955 16.005 32.595 16.5 32.085 16.5H28.65C25.395 16.5 22.815 19.47 23.52 22.845C24.015 25.305 26.295 27 28.8 27H32.085C32.61 27 32.955 27.51 32.805 27.99Z" fill="#FACC15"/>
</svg>
